<svg width="1336" height="682" viewBox="0 0 1336 682" fill="none" xmlns="http://www.w3.org/2000/svg">
<g clip-path="url(#clip0_494984_423)">
<path d="M1249.95 513.065L1243.37 497.852H1236.28L1234.77 485.282L1231.72 471.651L1228.18 460.539L1221.1 462.755L1217.05 465.086V478.215L1211.48 487.803H1204.9L1196.3 480.736V470.638L1193.25 455.49H1179.08L1178.07 462.755L1167.19 466.099L1162.88 472.664L1146.69 470.638L1139.6 478.215L1128.97 484.78L1124.41 497.852L1114.78 501.954L1097.58 508.51L1084.42 517.101L1082.91 535.279L1075.31 543.87V566.085L1081.38 574.173L1091.51 578.011L1106.69 570.639L1122.89 565.582L1134.03 556.999L1146.69 554.981L1155.79 562.049L1162.88 573.16L1167.94 578.011L1175.03 574.173L1179.08 581.743V592.854L1196.3 595.374H1205.92L1210.46 589.823L1223.12 578.011L1234.26 572.147L1240.34 560.031L1255.52 549.414L1259.06 535.279L1256.53 523.666L1249.95 513.065Z" fill="#F8DDCC"/>
<path d="M1189.2 609.015L1181.11 610.02V616.585L1188.2 621.139L1199.84 615.58L1205.4 610.02L1193.25 604.971L1189.2 609.015Z" fill="#F8DDCC"/>
<path d="M1329.93 578.012H1324.37L1322.34 587.295L1310.69 595.375L1302.6 599.419L1295.01 609.517L1285.89 613.051L1272.22 621.139H1264.62V632.242L1271.21 635.784L1283.36 633.255L1292.98 628.453L1305.13 616.584L1321.83 613.051L1332.97 601.939L1336 586.792L1329.93 578.012Z" fill="#F8DDCC"/>
<path d="M555.922 126.516L546.37 131.721L545.503 142.116L557.664 138.657L555.922 126.516Z" fill="#F8DDCC"/>
<path d="M571.559 133.451L565.483 138.657L563.741 149.917L578.503 144.719L586.321 138.657L584.587 131.722L574.168 124.786L579.378 116.986L570.692 104.854L560.265 116.121L564.607 129.119L571.559 133.451Z" fill="#F8DDCC"/>
<path d="M708.736 201.594C717.818 202.014 719.989 199.222 717.595 190.384C729.69 193.843 741.059 199.765 753.922 200.227C759.834 202.582 762.641 206.264 759.487 212.705C759.068 213.799 758.939 214.982 759.115 216.14C759.561 220.769 762.344 223.413 766.686 224.632C771.26 225.909 776.511 227.103 780.185 224.319C783.859 221.535 779.871 217.548 778.938 214.122C777.898 210.292 774.034 206.355 779.929 202.829C782.051 201.561 779.929 198.777 778.716 198.975C769.634 200.449 768.503 191.364 763.26 187.847C759.875 185.582 759.875 182.279 763.095 179.94C769.956 174.956 766.951 171.538 761.675 168.219C759.867 163.936 758.009 159.677 756.284 155.369C755.664 153.821 754.525 150.699 755.458 150.691C762.5 150.592 765.365 138.937 774.233 144.159C776.164 145.312 778.65 145.609 780.92 146.111C784.008 146.787 787.112 146.358 788.474 143.294C789.511 141.033 790.018 138.566 789.958 136.08C789.898 133.595 789.272 131.155 788.128 128.946C786.154 125.099 783.001 127.752 780.482 128.666C777.51 129.745 774.777 130.429 772.837 127.167C770.897 123.905 772.54 121.648 775.496 120.157C778.988 118.395 780.449 115.421 778.435 112.275C770.93 100.571 772.342 86.321 767.05 74.0236C766.582 73.0599 766.318 72.011 766.273 70.9415C766.227 69.872 766.402 68.8045 766.785 67.8049L750.389 66.8412L724.332 72.0386L711.304 83.3064L701.751 91.1066L694.8 80.7036L695.047 80.613L694.453 79.7234L709.966 73.7106L707.828 69.444L682.638 65.1032L649.614 59.041L624.424 67.706L611.396 84.1795L600.101 93.7094L595.758 100.645L598.161 112.629L614.525 108.33L617.076 113.93H616.977L617.414 114.894L610.091 116.229L611.577 122.184H620.172L619.792 118.444L631.029 125.643L638.839 116.113L633.976 102.358L633.63 101.378L637.981 90.983L648.4 83.1828L657.085 80.58L656.582 81.865L657.507 81.5849L652.297 92.8527L654.675 103.132L678.007 101.402L682.349 108.338L682.11 108.387L682.696 109.318L663.583 112.786L658.373 127.513L648.813 131.845L631.475 135.313L609.761 132.718L598.466 135.313L591.523 144.851L581.962 150.913L566.333 155.246L561.462 164.15L571.196 169.001L570.742 169.586L571.568 169.981L565.483 177.782L554.197 182.114L542.035 183.844V200.317L539.559 212.565L552.1 218.405L572.947 212.335L573.772 197.607L586.8 191.537L591.143 182.007L606.78 185.475L611.99 181.142L622.418 188.069L634.579 199.337L639.789 208.002L639.599 208.101L640.135 208.982L631.879 213.101L638.063 219.262L648.482 210.597L645.18 195.853L627.933 182.098L628.288 181.669L627.586 181.117L631.929 175.912L642.356 186.315L655.376 198.447L660.611 204.213C663.212 203.488 666.167 203.299 668.446 202.179C669.032 201.899 669.618 201.627 670.205 201.355L670.147 201.058L672.789 200.301C674.855 199.535 676.977 198.932 679.138 198.497L682.308 197.591L697.078 196.718L701.149 199.914C701.974 200.169 702.8 200.449 703.626 200.737C705.274 201.285 706.998 201.574 708.736 201.594V201.594Z" fill="#F8DDCC"/>
<path d="M1296.02 436.81L1289.41 425.698L1274.23 414.299H1261.6L1244.35 421.943L1243.37 420.139H1228.51C1228.22 421.72 1227.94 423.31 1227.69 424.891C1226.32 432.362 1224.9 439.989 1222.08 446.982L1226.21 447.913H1240.39L1240.45 447.806L1243.93 450.442L1259.11 458.011L1264.68 455.491L1259.11 443.869L1261.64 433.268L1272.28 427.206L1281.36 438.317L1296.54 447.913H1308.18V439.338L1296.02 436.81Z" fill="#F8DDCC"/>
<path d="M228.449 350.102L216.287 352.697L211.078 343.167L217.154 324.972L203.259 319.766L187.622 320.631L199.783 305.039V291.168L185.888 292.041L181.545 298.104L170.251 306.769L152.013 303.301L152.88 278.171L158.089 253.905L178.936 248.708L203.259 246.978L219.763 251.311L223.239 272.109L231.925 270.371L233.658 245.24L248.429 231.378L264.933 221.84L273.618 201.915L294.465 183.712L322.264 176.785L327.473 161.185L324.873 145.584H353.53L368.3 138.657L360.482 124.787L350.054 116.986L354.397 100.521H329.207L327.473 88.3886L301.417 90.9914L297.074 112.654L280.57 124.787V137.784L268.409 136.919L271.885 122.192L244.086 120.454L238.868 107.457L264.066 87.5238L281.437 77.9939L292.731 72.7965L284.913 54.5934L266.667 56.3313L250.162 64.9963L223.239 68.464L190.231 59.7907L152.013 58.061L138.11 62.3935L101.625 53.7285L62.5406 54.5934L16.5041 80.5884L0.62747 95.4145L0 114.384L13.2842 118.14L29.5324 110.924L38.2179 101.386L59.0648 98.7916L83.3875 113.519L85.1296 130.857L95.5489 152.52L85.9965 169.85L74.702 190.647L72.093 222.713L84.2544 234.846L81.6537 254.778L98.1578 288.574L102.501 285.106L91.2061 257.373L96.4158 249.573L110.319 276.441L119.872 299.833L145.928 318.901L161.565 317.163L176.327 331.034H189.364L198.916 345.761L208.469 361.362L231.925 362.226L228.449 350.102Z" fill="#F8DDCC"/>
<path d="M410.861 421.159H396.099L388.28 409.026H360.482L358.748 398.623L351.796 376.096L324.873 371.763L308.361 361.36H291.865L282.304 348.363L264.066 340.562L244.086 351.83L234.534 370.033L232.792 393.426L221.497 405.558L218.896 430.689L229.316 442.821L231.925 462.754L250.163 476.617L271.01 492.217L273.618 514.753V545.08L274.485 564.14L273.618 589.27L277.961 627.406L289.256 658.599L311.836 679.396L333.558 681.999L330.083 673.334L317.054 665.534L310.969 655.139L322.264 644.736L323.131 634.333L314.445 631.739L310.969 619.606L319.655 611.806L323.131 599.673L342.244 597.943L344.845 586.676L336.159 581.478L334.425 573.678L351.796 578.011L367.434 557.205L368.3 535.55L379.587 519.077L397.833 516.482L406.518 500.017L407.394 470.546L418.68 455.819L429.974 434.156L413.47 430.689L410.861 421.159Z" fill="#F8DDCC"/>
<path d="M524.648 40.7223V30.3276L529.866 20.7977L544.628 18.1949L542.894 10.3947H528.999L495.123 0L463.849 2.59457L424.764 8.66502L377.853 25.9951L381.328 35.5332L400.433 33.7952L410.861 49.3956L403.042 66.7256V85.7854L412.603 96.1884L429.107 97.9181L444.736 82.326L466.458 76.2555L476.877 63.258L503.809 61.5283L514.228 47.6576L524.648 40.7223Z" fill="#F8DDCC"/>
<path d="M350.054 162.05L353.53 163.788L368.3 167.247L374.376 157.717L364.824 147.314L350.054 162.05Z" fill="#F8DDCC"/>
<path d="M223.239 285.105L207.602 286.835L225.848 291.168L244.086 301.571L259.723 300.698L250.162 289.438L223.239 285.105Z" fill="#F8DDCC"/>
<path d="M281.437 303.301L268.409 298.104L255.381 311.101H273.619L281.437 303.301Z" fill="#F8DDCC"/>
<path d="M224.106 38.127L201.525 39.8649L187.622 46.792L199.783 49.3948L224.106 38.127Z" fill="#F8DDCC"/>
<path d="M375.252 69.3287L362.216 59.7906L350.054 47.6579L335.292 45.9282L308.361 41.5957L302.284 45.9282L303.151 59.7906L297.941 64.9962L300.542 71.0584L310.97 67.5908L317.054 75.3909L331.817 84.9291L344.845 92.721L355.272 84.056L353.53 73.6612L363.091 76.2558L375.252 69.3287Z" fill="#F8DDCC"/>
<path d="M306.627 35.5338L337.893 38.1284L350.054 28.5985L372.643 20.7983L397.833 12.9981L401.309 7.80078L334.426 10.3953L309.236 15.601L313.579 19.0604L322.264 25.9957L310.97 25.1308L306.627 35.5338Z" fill="#F8DDCC"/>
<path d="M211.945 60.6625H231.058L246.687 57.1948L251.905 44.1973L227.582 43.3242L206.735 50.2595L211.945 60.6625Z" fill="#F8DDCC"/>
<path d="M269.276 29.4629L248.429 30.3277L238.868 35.5333L258.848 38.1279L269.276 29.4629Z" fill="#F8DDCC"/>
<path d="M273.619 47.6572L281.437 41.5949L270.143 39.8652L264.066 46.7923L273.619 47.6572Z" fill="#F8DDCC"/>
<path d="M302.284 38.9922H290.122L286.646 45.9275L294.465 46.7924L302.284 38.9922Z" fill="#F8DDCC"/>
<path d="M287.514 79.7224L286.647 84.928L284.038 88.3874L300.542 84.928L296.199 73.6602L287.514 79.7224Z" fill="#F8DDCC"/>
<path d="M79.0449 135.189L70.3594 126.516L71.2263 134.316L77.3111 144.719L79.0449 135.189Z" fill="#F8DDCC"/>
<path d="M793.923 465.35L779.161 487.021L778.294 503.478L773.077 507.811L771.343 523.411L780.903 532.949L790.448 521.69L796.532 498.281L802.609 479.213L801.75 462.756L793.923 465.35Z" fill="#F8DDCC"/>
<path d="M770.839 337.607L750.859 308.144L732.613 280.411L726.536 263.938L728.584 254.177L695.262 241.435L675.29 229.302L663.996 231.032L668.338 244.894L661.395 252.695L647.5 244.013L646.674 233.618L621.435 229.302L628.378 218.034L602.322 215.432L577.999 223.232H556.285L542.39 237.959L541.515 254.432L522.41 261.36L510.249 285.625L512.85 312.493L504.164 326.355L507.64 337.623L519.801 346.264L525.019 362.737L548.467 380.034L569.314 374.837L589.294 366.172L604.056 368.766L605.798 379.21L624.036 377.473L625.778 401.738L635.33 419.035L642.282 447.633L644.883 464.93L636.197 469.262L632.721 487.457L642.282 501.328L644.883 516.055V535.988L655.31 544.653L658.778 571.521L677.891 577.584L707.423 568.918L721.327 541.185L723.935 523.847L734.355 526.458L737.831 507.39L730.012 497.86L755.202 489.187L762.145 474.46L759.544 454.527L757.802 429.454L771.706 400.857L794.295 380.034L809.057 343.636L784.734 347.977L770.839 337.607Z" fill="#F8DDCC"/>
<path d="M944.203 372.629L950.279 371.764V357.902L941.594 356.164L944.203 372.629Z" fill="#F8DDCC"/>
<path d="M1240.34 80.2577V70.1595L1217.05 65.6129L1193.23 62.0958L1178.06 58.0598H1156.79L1107.69 55.2264H1078.8L1065.63 47.9616H1042.86L1035.76 55.2264L1015.52 50.9844L1008.63 55.2264L986.276 58.9411L981.934 50.2761L941.974 45.9436H915.917L920.252 36.4137C920.252 36.4137 888.119 30.3432 885.51 30.3432C882.901 30.3432 868.172 24.281 868.172 24.281L852.534 17.3457H836.897L842.115 27.7487L861.228 26.8756L860.353 33.8109L843.841 38.1434L816.917 50.2761L806.49 55.4735L796.937 46.792L784.776 51.9893L796.937 65.86L779.599 67.5897L766.984 66.8484C766.896 67.1769 766.766 67.4926 766.596 67.7874H766.81C766.427 68.787 766.252 69.8545 766.298 70.924C766.343 71.9935 766.607 73.0424 767.075 74.0061C772.367 86.3035 770.955 100.553 778.46 112.257C780.483 115.404 779.013 118.377 775.521 120.14C772.565 121.631 770.872 123.797 772.862 127.149C774.852 130.502 777.535 129.727 780.507 128.648C783.026 127.734 786.179 125.082 788.153 128.928C789.297 131.137 789.923 133.577 789.983 136.063C790.043 138.549 789.536 141.015 788.5 143.277C787.137 146.341 784.033 146.769 780.945 146.094C778.675 145.591 776.19 145.27 774.258 144.142C765.423 138.92 762.526 150.575 755.483 150.673C754.525 150.673 755.665 153.803 756.309 155.352C758.034 159.66 759.892 163.918 761.7 168.201C766.976 171.496 769.956 174.939 763.12 179.922C759.9 182.261 759.9 185.564 763.285 187.829C768.528 191.346 769.7 200.431 778.741 198.957C779.93 198.759 782.043 201.543 779.954 202.812C774.059 206.337 777.923 210.274 778.964 214.104C779.897 217.531 783.843 221.517 780.21 224.301C776.578 227.085 771.285 225.891 766.711 224.614C762.369 223.395 759.586 220.751 759.14 216.122C758.965 214.965 759.093 213.781 759.512 212.688C762.666 206.247 759.859 202.565 753.947 200.209C741.092 199.748 729.724 193.826 717.62 190.366C720.014 199.204 717.851 201.996 708.761 201.576C707.014 201.57 705.279 201.293 703.618 200.753C702.792 200.44 701.966 200.16 701.141 199.929L709.232 206.271L704.022 212.333L683.167 211.469L685.776 215.801L704.022 219.269L724.869 221.007L727.47 238.304L728.229 246.631L729.055 254.514L729.179 257.372L743.941 278.17L750.893 300.705L765.655 305.903V324.971L771.739 336.23L797.796 331.898L817.776 314.601L836.881 302.468L834.28 290.335L819.51 279.94V273.87L806.482 284.273L798.663 274.743L785.643 266.07L783.892 251.343L796.112 256.482L809.148 267.75L823.919 264.282L828.253 272.947L858.661 274.685L873.423 276.415L877.765 289.413L887.318 297.213L895.136 294.61L898.612 317.146L909.907 338.808L922.068 360.471L930.754 353.535V324.971L951.6 306.767L964.629 291.167L979.399 289.429L989.818 308.497L997.637 321.495L1010.79 322.261L1021.66 328.216L1029.77 331.749H1039.89L1041.9 345.439L1052.7 356.147L1063.17 352.786L1068.9 338.306L1066.91 325.193L1061.14 317.113L1050 309.033L1051.65 290.854H1076L1094.22 285.467L1106.36 273.343L1108.39 254.489L1106.73 237.653L1097.29 221.501L1080.41 213.75L1077.38 204.327L1090.2 197.598L1105.73 202.309L1116.86 207.358L1124.55 200.621L1120.23 192.541L1122.93 181.767L1139.45 179.074L1143.83 170.993L1142.65 147.931L1143.16 133.286L1119.87 131.77L1105.19 131.268V119.654L1112.79 108.04H1134.56L1146.7 109.556L1148.22 104.498L1154.83 95.9157L1168.49 99.4493L1174.57 111.063L1175.58 124.201L1186.21 134.299L1189.25 143.895H1198.87L1206.96 136.819L1202.41 121.672L1192.75 115.634L1191.24 103.518L1207.43 99.474L1222.11 94.9356L1224.64 90.3889L1219.08 86.8471L1220.08 80.2577H1240.34Z" fill="#F8DDCC"/>
<path d="M1103.66 369.639L1095.03 381.755L1075.31 396.894L1078.35 412.058L1095.05 420.138L1104.17 416.596L1111.25 402.964L1114.78 382.768L1110.23 369.639H1103.66Z" fill="#F8DDCC"/>
<path d="M1048.99 403.978L1044.42 394.885H1029.75V403.476L1036.33 420.139L1045.95 427.206H1059.11V418.121L1051.01 414.299L1048.99 403.978Z" fill="#F8DDCC"/>
<path d="M1040.88 384.787L1047.47 380.24L1039.36 372.629L1037.34 364.392L1026.2 356.164L1023.68 348.43L1018.1 353.479L1026.2 364.392L1032.79 375.693L1040.88 384.787Z" fill="#F8DDCC"/>
<path d="M1164.91 230.761L1175.03 226.717L1182.62 221.667L1186.17 206.512L1181.11 193.893L1177.56 186.315L1178.57 179.248L1170.47 175.707L1169.46 167.124L1164.91 163.088L1157.82 168.639L1164.91 185.302V194.906V210.556L1150.73 219.649L1139.6 226.717V236.815L1147.19 243.379H1161.87L1164.91 230.761Z" fill="#F8DDCC"/>
<path d="M1159.85 366.608L1150.73 360.496L1152.75 348.429L1147.19 341.099L1135.8 332.261V322.162L1123.91 307.518L1117.83 311.562L1120.87 331.758L1111.76 345.901L1114.78 358.528L1128.46 352.465L1135.04 358.528L1141.11 372.629L1159.85 374.688V366.608Z" fill="#F8DDCC"/>
<path d="M1123.91 411.054L1121.37 425.188L1135.8 430.748L1139.6 425.188V416.103L1144.65 411.054V399.432L1155.79 394.885L1142.13 384.787L1127.95 394.885L1123.91 411.054Z" fill="#F8DDCC"/>
<path d="M1103.15 447.913L1108.21 458.012L1129.98 455.491L1148.2 452.46L1153.27 445.64L1142.63 440.846L1133.01 447.913H1121.37L1114.78 442.354L1095.03 437.304L1080.37 430.748L1068.23 433.268L1065.18 440.344L1082.39 444.38L1103.15 447.913Z" fill="#F8DDCC"/>
<path d="M1228.54 420.138H1225.66L1218.56 411.078L1205.92 403.5L1196.3 408.549V411.078H1188.7L1183.14 403.5L1181.11 392.389L1169.46 396.919L1174.53 411.078L1186.17 420.138L1197.36 423.433L1210.47 433.235L1215.02 445.359L1222.07 446.949C1224.89 439.956 1226.32 432.328 1227.68 424.858C1227.97 423.309 1228.25 421.72 1228.54 420.138Z" fill="#F8DDCC"/>
</g>
<defs>
<clipPath id="clip0_494984_423">
<rect width="1336" height="682" fill="white"/>
</clipPath>
</defs>
</svg>
